<svg xmlns="http://www.w3.org/2000/svg" viewBox="0 0 1200 630" role="img" aria-label="Gunung Semeru erupsi">
  <defs>
    <linearGradient id="sky3" x1="0" y1="0" x2="0" y2="1">
      <stop offset="0%" stop-color="#0a0a0a"/><stop offset="30%" stop-color="#2b1a10"/>
      <stop offset="60%" stop-color="#5c3620"/><stop offset="100%" stop-color="#8a5028"/>
    </linearGradient>
    <linearGradient id="lav3" x1="0" y1="0" x2="0" y2="1">
      <stop offset="0%" stop-color="#ffab40"/><stop offset="50%" stop-color="#ff3d00"/><stop offset="100%" stop-color="#c62828"/>
    </linearGradient>
    <radialGradient id="er3" cx="50%" cy="35%" r="50%">
      <stop offset="0%" stop-color="#ff3d00" stop-opacity="0.7"/><stop offset="50%" stop-color="#c62828" stop-opacity="0.3"/>
      <stop offset="100%" stop-color="#000" stop-opacity="0"/>
    </radialGradient>
    <filter id="g3" x="-50%" y="-50%" width="200%" height="200%">
      <feGaussianBlur stdDeviation="10" result="b"/><feMerge><feMergeNode in="b"/><feMergeNode in="SourceGraphic"/></feMerge>
    </filter>
    <filter id="b3" x="-20%" y="-20%" width="140%" height="140%"><feGaussianBlur stdDeviation="6"/></filter>
    <filter id="b2" x="-20%" y="-20%" width="140%" height="140%"><feGaussianBlur stdDeviation="12"/></filter>
  </defs>
  <rect width="1200" height="630" fill="url(#sky3)"/>
  <circle cx="600" cy="220" r="400" fill="url(#er3)" filter="url(#b2)"/>
  <g fill="#1c1008" opacity="0.6" filter="url(#b3)">
    <ellipse cx="500" cy="100" rx="350" ry="80"/><ellipse cx="700" cy="80" rx="280" ry="70"/>
    <ellipse cx="600" cy="50" rx="200" ry="50"/><ellipse cx="850" cy="130" rx="180" ry="40"/>
  </g>
  <path d="M0 630 L250 350 L450 450 L600 200 L750 450 L950 350 L1200 630 Z" fill="#1c1008"/>
  <ellipse cx="600" cy="210" rx="50" ry="15" fill="#3e1f0c"/>
  <path d="M580 210 Q590 250 600 300 Q610 250 620 210" fill="url(#lav3)" opacity="0.85" filter="url(#g3)"/>
  <ellipse cx="600" cy="200" rx="80" ry="30" fill="url(#lav3)" opacity="0.4" filter="url(#g3)"/>
  <g fill="#d7ccc8" opacity="0.6">
    <circle cx="350" cy="250" r="3"/><circle cx="400" cy="200" r="2"/><circle cx="500" cy="150" r="4"/>
    <circle cx="700" cy="180" r="3"/><circle cx="800" cy="220" r="2.5"/><circle cx="650" cy="120" r="3"/>
  </g>
</svg>